<svg width="1440" height="900" xmlns="http://www.w3.org/2000/svg" viewBox="0 0 1440 900" font-family="-apple-system,'Segoe UI',Roboto,sans-serif">
  <defs>
    <linearGradient id="bg" x1="0" y1="0" x2="1" y2="1">
      <stop offset="0" stop-color="#0052ff"/><stop offset="0.55" stop-color="#3d7bff"/><stop offset="1" stop-color="#c0fd79"/>
    </linearGradient>
    <filter id="sh" x="-10%" y="-10%" width="120%" height="120%"><feDropShadow dx="0" dy="12" stdDeviation="18" flood-color="#1e232e" flood-opacity="0.3"/></filter>
  </defs>
  <rect width="1440" height="900" rx="28" fill="url(#bg)"/>
  <circle cx="1300" cy="90" r="170" fill="#ffffff" opacity="0.07"/>
  <circle cx="130" cy="820" r="200" fill="#1e232e" opacity="0.06"/>
  <g filter="url(#sh)">
    <rect x="80" y="70" width="1280" height="760" rx="20" fill="#ffffff"/>
    <path d="M80 90 a20 20 0 0 1 20-20 h200 v760 h-200 a20 20 0 0 1-20-20 z" fill="#f7f8fa"/>
    <circle cx="126" cy="122" r="17" fill="#c0fd79"/>
    <text x="126" y="128" font-size="20" font-weight="800" fill="#1e232e" text-anchor="middle">b</text>
    <text x="154" y="129" font-size="18" font-weight="800" fill="#1e232e" text-anchor="start">bistro</text>
    <circle cx="122" cy="204" r="6" fill="#d1d5db"/><text x="140" y="209" font-size="13.5" font-weight="500" fill="#6b7280" text-anchor="start">Dashboard</text><circle cx="122" cy="256" r="6" fill="#d1d5db"/><text x="140" y="261" font-size="13.5" font-weight="500" fill="#6b7280" text-anchor="start">Caja</text><circle cx="122" cy="308" r="6" fill="#d1d5db"/><text x="140" y="313" font-size="13.5" font-weight="500" fill="#6b7280" text-anchor="start">Mesas</text><circle cx="122" cy="360" r="6" fill="#d1d5db"/><text x="140" y="365" font-size="13.5" font-weight="500" fill="#6b7280" text-anchor="start">Tablero</text><circle cx="122" cy="412" r="6" fill="#d1d5db"/><text x="140" y="417" font-size="13.5" font-weight="500" fill="#6b7280" text-anchor="start">Cocina (KDS)</text><circle cx="122" cy="464" r="6" fill="#d1d5db"/><text x="140" y="469" font-size="13.5" font-weight="500" fill="#6b7280" text-anchor="start">Menú</text><circle cx="122" cy="516" r="6" fill="#d1d5db"/><text x="140" y="521" font-size="13.5" font-weight="500" fill="#6b7280" text-anchor="start">Inventario</text><circle cx="122" cy="568" r="6" fill="#d1d5db"/><text x="140" y="573" font-size="13.5" font-weight="500" fill="#6b7280" text-anchor="start">Métricas</text>
    <circle cx="126" cy="780" r="16" fill="#d1d5db"/><text x="126" y="785" font-size="12" font-weight="700" fill="#1e232e" text-anchor="middle">CM</text>
    <text x="152" y="778" font-size="12.5" font-weight="600" fill="#1e232e" text-anchor="start">hello</text>
    <text x="152" y="793" font-size="11" font-weight="500" fill="#6b7280" text-anchor="start">Sede Centro</text>
    <text x="340" y="122" font-size="24" font-weight="800" fill="#1e232e" text-anchor="start">Alertas</text>
    <text x="340" y="146" font-size="12.5" font-weight="500" fill="#6b7280" text-anchor="start">Sede Centro · hoy</text>
    <rect x="880" y="100" width="230" height="40" rx="20" fill="#f4f5f7" stroke="#e5e7eb"/>
    <circle cx="904" cy="120" r="7" fill="none" stroke="#6b7280" stroke-width="2.4"/><line x1="909" y1="126" x2="915" y2="132" stroke="#6b7280" stroke-width="2.4" stroke-linecap="round"/>
    <text x="926" y="125" font-size="13" font-weight="500" fill="#6b7280" text-anchor="start">Buscar…</text>
    <circle cx="1146" cy="120" r="17" fill="#f4f5f7"/><path d="M 1140 126 h12 M 1141 126 v-7 a5 5 0 0 1 10 0 v7" fill="none" stroke="#6b7280" stroke-width="2"/>
    <circle cx="1156" cy="108" r="5" fill="#d9402a"/>
    <rect x="1186" y="100" width="144" height="40" rx="20" fill="#0052ff"/>
    <text x="1258" y="125" font-size="13" font-weight="700" fill="#ffffff" text-anchor="middle">+ Nuevo pedido</text>
  </g>
  <g><rect x="320" y="190" width="1020" height="610" rx="14" fill="#ffffff" stroke="#e5e7eb" /><text x="344" y="224" font-size="17" font-weight="700" fill="#1e232e" text-anchor="start">Alertas recientes</text><circle cx="354" cy="300.5" r="7" fill="#d9402a"/><text x="374" y="298.5" font-size="14" font-weight="600" fill="#1e232e" text-anchor="start">Stock bajo mínimo</text><text x="374" y="316.5" font-size="12" font-weight="500" fill="#6b7280" text-anchor="start">Queso campesino · quedan 2 kg</text><rect x="1241.5" y="288.5" width="74.5" height="24" rx="12" fill="#fbdcd4"/><text x="1278.75" y="304.5" font-size="12" font-weight="700" fill="#1e232e" text-anchor="middle">Crítica</text><line x1="340" y1="343" x2="1320" y2="343" stroke="#e5e7eb"/><circle cx="354" cy="389.5" r="7" fill="#f39c12"/><text x="374" y="387.5" font-size="14" font-weight="600" fill="#1e232e" text-anchor="start">Caja abierta +24 h</text><text x="374" y="405.5" font-size="12" font-weight="500" fill="#6b7280" text-anchor="start">Caja 2 · Barra · abierta desde ayer</text><rect x="1234" y="377.5" width="82" height="24" rx="12" fill="#fde8c8"/><text x="1275" y="393.5" font-size="12" font-weight="700" fill="#1e232e" text-anchor="middle">Atención</text><line x1="340" y1="432" x2="1320" y2="432" stroke="#e5e7eb"/><circle cx="354" cy="478.5" r="7" fill="#f39c12"/><text x="374" y="476.5" font-size="14" font-weight="600" fill="#1e232e" text-anchor="start">Pedido demorado</text><text x="374" y="494.5" font-size="12" font-weight="500" fill="#6b7280" text-anchor="start">#126 lleva 25 min en cocina</text><rect x="1234" y="466.5" width="82" height="24" rx="12" fill="#fde8c8"/><text x="1275" y="482.5" font-size="12" font-weight="700" fill="#1e232e" text-anchor="middle">Atención</text><line x1="340" y1="521" x2="1320" y2="521" stroke="#e5e7eb"/><circle cx="354" cy="567.5" r="7" fill="#22c55e"/><text x="374" y="565.5" font-size="14" font-weight="600" fill="#1e232e" text-anchor="start">Meta de ventas</text><text x="374" y="583.5" font-size="12" font-weight="500" fill="#6b7280" text-anchor="start">92% de la meta diaria alcanzada</text><rect x="1264" y="555.5" width="52" height="24" rx="12" fill="#c0fd79"/><text x="1290" y="571.5" font-size="12" font-weight="700" fill="#1e232e" text-anchor="middle">Info</text><line x1="340" y1="610" x2="1320" y2="610" stroke="#e5e7eb"/><circle cx="354" cy="656.5" r="7" fill="#d9402a"/><text x="374" y="654.5" font-size="14" font-weight="600" fill="#1e232e" text-anchor="start">Insumo agotado</text><text x="374" y="672.5" font-size="12" font-weight="500" fill="#6b7280" text-anchor="start">Aguacate · 0 unidades</text><rect x="1241.5" y="644.5" width="74.5" height="24" rx="12" fill="#fbdcd4"/><text x="1278.75" y="660.5" font-size="12" font-weight="700" fill="#1e232e" text-anchor="middle">Crítica</text><line x1="340" y1="699" x2="1320" y2="699" stroke="#e5e7eb"/><circle cx="354" cy="745.5" r="7" fill="#22c55e"/><text x="374" y="743.5" font-size="14" font-weight="600" fill="#1e232e" text-anchor="start">Cierre de turno</text><text x="374" y="761.5" font-size="12" font-weight="500" fill="#6b7280" text-anchor="start">Caja principal cuadró sin diferencia</text><rect x="1264" y="733.5" width="52" height="24" rx="12" fill="#c0fd79"/><text x="1290" y="749.5" font-size="12" font-weight="700" fill="#1e232e" text-anchor="middle">Info</text></g>
</svg>