<svg width="1440" height="900" xmlns="http://www.w3.org/2000/svg" viewBox="0 0 1440 900" font-family="-apple-system,'Segoe UI',Roboto,sans-serif">
  <defs>
    <linearGradient id="bg" x1="0" y1="0" x2="1" y2="1">
      <stop offset="0" stop-color="#0052ff"/><stop offset="0.55" stop-color="#3d7bff"/><stop offset="1" stop-color="#c0fd79"/>
    </linearGradient>
    <filter id="sh" x="-10%" y="-10%" width="120%" height="120%"><feDropShadow dx="0" dy="12" stdDeviation="18" flood-color="#1e232e" flood-opacity="0.3"/></filter>
  </defs>
  <rect width="1440" height="900" rx="28" fill="url(#bg)"/>
  <circle cx="1300" cy="90" r="170" fill="#ffffff" opacity="0.07"/>
  <circle cx="130" cy="820" r="200" fill="#1e232e" opacity="0.06"/>
  <g filter="url(#sh)">
    <rect x="80" y="70" width="1280" height="760" rx="20" fill="#ffffff"/>
    <path d="M80 90 a20 20 0 0 1 20-20 h200 v760 h-200 a20 20 0 0 1-20-20 z" fill="#f7f8fa"/>
    <circle cx="126" cy="122" r="17" fill="#c0fd79"/>
    <text x="126" y="128" font-size="20" font-weight="800" fill="#1e232e" text-anchor="middle">b</text>
    <text x="154" y="129" font-size="18" font-weight="800" fill="#1e232e" text-anchor="start">bistro</text>
    <circle cx="122" cy="204" r="6" fill="#d1d5db"/><text x="140" y="209" font-size="13.5" font-weight="500" fill="#6b7280" text-anchor="start">Dashboard</text><circle cx="122" cy="256" r="6" fill="#d1d5db"/><text x="140" y="261" font-size="13.5" font-weight="500" fill="#6b7280" text-anchor="start">Caja</text><circle cx="122" cy="308" r="6" fill="#d1d5db"/><text x="140" y="313" font-size="13.5" font-weight="500" fill="#6b7280" text-anchor="start">Mesas</text><circle cx="122" cy="360" r="6" fill="#d1d5db"/><text x="140" y="365" font-size="13.5" font-weight="500" fill="#6b7280" text-anchor="start">Tablero</text><circle cx="122" cy="412" r="6" fill="#d1d5db"/><text x="140" y="417" font-size="13.5" font-weight="500" fill="#6b7280" text-anchor="start">Cocina (KDS)</text><circle cx="122" cy="464" r="6" fill="#d1d5db"/><text x="140" y="469" font-size="13.5" font-weight="500" fill="#6b7280" text-anchor="start">Menú</text><circle cx="122" cy="516" r="6" fill="#d1d5db"/><text x="140" y="521" font-size="13.5" font-weight="500" fill="#6b7280" text-anchor="start">Inventario</text><circle cx="122" cy="568" r="6" fill="#d1d5db"/><text x="140" y="573" font-size="13.5" font-weight="500" fill="#6b7280" text-anchor="start">Métricas</text>
    <circle cx="126" cy="780" r="16" fill="#d1d5db"/><text x="126" y="785" font-size="12" font-weight="700" fill="#1e232e" text-anchor="middle">CM</text>
    <text x="152" y="778" font-size="12.5" font-weight="600" fill="#1e232e" text-anchor="start">Cristian M.</text>
    <text x="152" y="793" font-size="11" font-weight="500" fill="#6b7280" text-anchor="start">Sede Centro</text>
    <text x="340" y="122" font-size="24" font-weight="800" fill="#1e232e" text-anchor="start">Compras</text>
    <text x="340" y="146" font-size="12.5" font-weight="500" fill="#6b7280" text-anchor="start">Sede Centro · hoy</text>
    <rect x="880" y="100" width="230" height="40" rx="20" fill="#f4f5f7" stroke="#e5e7eb"/>
    <circle cx="904" cy="120" r="7" fill="none" stroke="#6b7280" stroke-width="2.4"/><line x1="909" y1="126" x2="915" y2="132" stroke="#6b7280" stroke-width="2.4" stroke-linecap="round"/>
    <text x="926" y="125" font-size="13" font-weight="500" fill="#6b7280" text-anchor="start">Buscar…</text>
    <circle cx="1146" cy="120" r="17" fill="#f4f5f7"/><path d="M 1140 126 h12 M 1141 126 v-7 a5 5 0 0 1 10 0 v7" fill="none" stroke="#6b7280" stroke-width="2"/>
    <circle cx="1156" cy="108" r="5" fill="#d9402a"/>
    <rect x="1186" y="100" width="144" height="40" rx="20" fill="#0052ff"/>
    <text x="1258" y="125" font-size="13" font-weight="700" fill="#ffffff" text-anchor="middle">+ Nuevo pedido</text>
  </g>
  <g><rect x="320" y="190" width="1020" height="610" rx="14" fill="#ffffff" stroke="#e5e7eb" /><path d="M 320 204 a14 14 0 0 1 14-14 h992 a14 14 0 0 1 14 14 v38 h-1020 z" fill="#f4f5f7"/><text x="344" y="223" font-size="13" font-weight="700" fill="#6b7280" text-anchor="start">Proveedor</text><text x="538.4" y="223" font-size="13" font-weight="700" fill="#6b7280" text-anchor="start">Orden</text><text x="732.8" y="223" font-size="13" font-weight="700" fill="#6b7280" text-anchor="start">Entrega</text><text x="927.2" y="223" font-size="13" font-weight="700" fill="#6b7280" text-anchor="start">Total</text><text x="1121.6" y="223" font-size="13" font-weight="700" fill="#6b7280" text-anchor="start">Estado</text><text x="344" y="290.85714285714283" font-size="13.5" font-weight="600" fill="#1e232e" text-anchor="start">Lácteos La Pradera</text><text x="538.4" y="290.85714285714283" font-size="13.5" font-weight="400" fill="#6b7280" text-anchor="start">#OC-091</text><text x="732.8" y="290.85714285714283" font-size="13.5" font-weight="400" fill="#6b7280" text-anchor="start">hoy</text><text x="927.2" y="290.85714285714283" font-size="13.5" font-weight="400" fill="#6b7280" text-anchor="start">$486.000</text><rect x="1121.6" y="274.85714285714283" width="82" height="24" rx="12" fill="#c0fd79"/><text x="1162.6" y="290.85714285714283" font-size="12" font-weight="700" fill="#1e232e" text-anchor="middle">Recibida</text><line x1="336" y1="321.71428571428567" x2="1324" y2="321.71428571428567" stroke="#e5e7eb"/><text x="344" y="368.57142857142856" font-size="13.5" font-weight="600" fill="#1e232e" text-anchor="start">Café del Eje</text><text x="538.4" y="368.57142857142856" font-size="13.5" font-weight="400" fill="#6b7280" text-anchor="start">#OC-090</text><text x="732.8" y="368.57142857142856" font-size="13.5" font-weight="400" fill="#6b7280" text-anchor="start">mañana</text><text x="927.2" y="368.57142857142856" font-size="13.5" font-weight="400" fill="#6b7280" text-anchor="start">$312.500</text><rect x="1121.6" y="352.57142857142856" width="89.5" height="24" rx="12" fill="#fde8c8"/><text x="1166.35" y="368.57142857142856" font-size="12" font-weight="700" fill="#1e232e" text-anchor="middle">En camino</text><line x1="336" y1="399.4285714285714" x2="1324" y2="399.4285714285714" stroke="#e5e7eb"/><text x="344" y="446.2857142857143" font-size="13.5" font-weight="600" fill="#1e232e" text-anchor="start">Frutas El Campo</text><text x="538.4" y="446.2857142857143" font-size="13.5" font-weight="400" fill="#6b7280" text-anchor="start">#OC-089</text><text x="732.8" y="446.2857142857143" font-size="13.5" font-weight="400" fill="#6b7280" text-anchor="start">10 jul</text><text x="927.2" y="446.2857142857143" font-size="13.5" font-weight="400" fill="#6b7280" text-anchor="start">$208.900</text><rect x="1121.6" y="430.2857142857143" width="82" height="24" rx="12" fill="rgba(0,82,255,0.12)"/><text x="1162.6" y="446.2857142857143" font-size="12" font-weight="700" fill="#1e232e" text-anchor="middle">Aprobada</text><line x1="336" y1="477.1428571428571" x2="1324" y2="477.1428571428571" stroke="#e5e7eb"/><text x="344" y="524" font-size="13.5" font-weight="600" fill="#1e232e" text-anchor="start">Carnes Premium</text><text x="538.4" y="524" font-size="13.5" font-weight="400" fill="#6b7280" text-anchor="start">#OC-088</text><text x="732.8" y="524" font-size="13.5" font-weight="400" fill="#6b7280" text-anchor="start">9 jul</text><text x="927.2" y="524" font-size="13.5" font-weight="400" fill="#6b7280" text-anchor="start">$1.120.000</text><rect x="1121.6" y="508" width="82" height="24" rx="12" fill="rgba(0,82,255,0.12)"/><text x="1162.6" y="524" font-size="12" font-weight="700" fill="#1e232e" text-anchor="middle">Aprobada</text><line x1="336" y1="554.8571428571429" x2="1324" y2="554.8571428571429" stroke="#e5e7eb"/><text x="344" y="601.7142857142858" font-size="13.5" font-weight="600" fill="#1e232e" text-anchor="start">Desechables RG</text><text x="538.4" y="601.7142857142858" font-size="13.5" font-weight="400" fill="#6b7280" text-anchor="start">#OC-087</text><text x="732.8" y="601.7142857142858" font-size="13.5" font-weight="400" fill="#6b7280" text-anchor="start">recibida 5 jul</text><text x="927.2" y="601.7142857142858" font-size="13.5" font-weight="400" fill="#6b7280" text-anchor="start">$96.400</text><rect x="1121.6" y="585.7142857142858" width="82" height="24" rx="12" fill="#c0fd79"/><text x="1162.6" y="601.7142857142858" font-size="12" font-weight="700" fill="#1e232e" text-anchor="middle">Recibida</text><line x1="336" y1="632.5714285714287" x2="1324" y2="632.5714285714287" stroke="#e5e7eb"/><text x="344" y="679.4285714285714" font-size="13.5" font-weight="600" fill="#1e232e" text-anchor="start">Lácteos La Pradera</text><text x="538.4" y="679.4285714285714" font-size="13.5" font-weight="400" fill="#6b7280" text-anchor="start">#OC-086</text><text x="732.8" y="679.4285714285714" font-size="13.5" font-weight="400" fill="#6b7280" text-anchor="start">recibida 2 jul</text><text x="927.2" y="679.4285714285714" font-size="13.5" font-weight="400" fill="#6b7280" text-anchor="start">$454.100</text><rect x="1121.6" y="663.4285714285714" width="82" height="24" rx="12" fill="#c0fd79"/><text x="1162.6" y="679.4285714285714" font-size="12" font-weight="700" fill="#1e232e" text-anchor="middle">Recibida</text><line x1="336" y1="710.2857142857143" x2="1324" y2="710.2857142857143" stroke="#e5e7eb"/><text x="344" y="757.1428571428571" font-size="13.5" font-weight="600" fill="#1e232e" text-anchor="start">Licores del Café</text><text x="538.4" y="757.1428571428571" font-size="13.5" font-weight="400" fill="#6b7280" text-anchor="start">#OC-085</text><text x="732.8" y="757.1428571428571" font-size="13.5" font-weight="400" fill="#6b7280" text-anchor="start">recibida 1 jul</text><text x="927.2" y="757.1428571428571" font-size="13.5" font-weight="400" fill="#6b7280" text-anchor="start">$688.000</text><rect x="1121.6" y="741.1428571428571" width="82" height="24" rx="12" fill="#c0fd79"/><text x="1162.6" y="757.1428571428571" font-size="12" font-weight="700" fill="#1e232e" text-anchor="middle">Recibida</text></g>
</svg>